<?xml version="1.0" encoding="utf-8"?>
<!-- Generator: Adobe Illustrator 21.0.0, SVG Export Plug-In . SVG Version: 6.00 Build 0)  -->
<svg version="1.1" id="Layer_1" xmlns="http://www.w3.org/2000/svg" xmlns:xlink="http://www.w3.org/1999/xlink" x="0px" y="0px"
	 viewBox="0 0 57.7 57" style="enable-background:new 0 0 57.7 57;" xml:space="preserve">
<style type="text/css">
	.st0{fill:#FFFFFF;}
	.st1{fill:#FFFFFF;stroke:#FFFFFF;stroke-miterlimit:10;}
</style>
<g>
	<path class="st0" d="M42.3,17.4c-0.2-0.3-0.5-0.4-0.9-0.4c-0.4,0-0.7,0.1-0.9,0.4c-0.3,0.3-0.4,0.9-0.4,1.6c0,0.8,0.1,1.3,0.4,1.6
		c0.2,0.3,0.6,0.5,1,0.5c0.4,0,0.7-0.1,0.9-0.4c0.3-0.3,0.4-0.9,0.4-1.6C42.7,18.3,42.6,17.7,42.3,17.4z M41.9,20.1
		c0,0.2-0.1,0.3-0.2,0.3c-0.1,0.1-0.2,0.1-0.3,0.1c-0.1,0-0.2,0-0.2-0.1C41.1,20.3,41,20.2,41,20c0-0.2-0.1-0.5-0.1-1
		c0-0.5,0-0.8,0.1-1c0-0.2,0.1-0.3,0.2-0.3c0.1-0.1,0.2-0.1,0.3-0.1c0.1,0,0.2,0,0.2,0.1c0.1,0.1,0.1,0.2,0.2,0.4
		c0,0.2,0.1,0.5,0.1,1C41.9,19.5,41.9,19.9,41.9,20.1z"/>
	<path class="st1" d="M28.9,5.4c12.7,0,23.1,10.3,23.1,23.1S41.6,51.6,28.9,51.6c-12.7,0-23.1-10.3-23.1-23.1S16.1,5.4,28.9,5.4
		 M28.9,3.5c-13.8,0-25,11.2-25,25c0,13.8,11.2,25,25,25s25-11.2,25-25C53.9,14.7,42.6,3.5,28.9,3.5L28.9,3.5z"/>
	<path class="st0" d="M37.2,18c0.2-0.1,0.4-0.2,0.7-0.4c0.2-0.2,0.4-0.4,0.5-0.6H39v4.1h-0.8v-2.9c-0.3,0.3-0.6,0.5-1,0.6V18z"/>
	<path class="st0" d="M22.3,35.1c-4.9-0.7-8.8-4.8-9.2-9.8c-0.4-4.9,2.4-8.9,5.8-10.6c-1.8,4.6-1.2,8.9,2.4,12.5
		c3.6,3.5,7.9,3.9,12.5,2C31.8,33.1,27.4,35.9,22.3,35.1z"/>
	<path class="st0" d="M38.5,42.2c-2.8,2.1-6.2,2.6-8.6,2.6c-1.4,0-2.4-0.2-2.5-0.2l0.2-1.4c0,0,1.5,0.2,3.5,0.1
		c1.1-0.1,3.8-0.4,6.4-2.2c3.4-2.3,4.6-5.8,4.9-7C42.2,37.7,40.9,40.4,38.5,42.2z"/>
	<path class="st0" d="M36.1,17.4c-0.2-0.3-0.5-0.4-0.9-0.4c-0.4,0-0.7,0.1-0.9,0.4c-0.3,0.3-0.4,0.9-0.4,1.6c0,0.8,0.1,1.3,0.4,1.6
		c0.2,0.3,0.6,0.5,1,0.5c0.4,0,0.7-0.1,0.9-0.4c0.3-0.3,0.4-0.9,0.4-1.6C36.5,18.3,36.3,17.7,36.1,17.4z M35.6,20.1
		c0,0.2-0.1,0.3-0.2,0.3c-0.1,0.1-0.2,0.1-0.3,0.1c-0.1,0-0.2,0-0.2-0.1c-0.1-0.1-0.1-0.2-0.2-0.4c0-0.2-0.1-0.5-0.1-1
		c0-0.5,0-0.8,0.1-1c0-0.2,0.1-0.3,0.2-0.3c0.1-0.1,0.2-0.1,0.3-0.1c0.1,0,0.2,0,0.2,0.1c0.1,0.1,0.1,0.2,0.2,0.4
		c0,0.2,0.1,0.5,0.1,1C35.7,19.5,35.6,19.9,35.6,20.1z"/>
</g>
</svg>
