<?xml version="1.0" encoding="utf-8"?>
<!-- Generator: Adobe Illustrator 21.0.0, SVG Export Plug-In . SVG Version: 6.00 Build 0)  -->
<svg version="1.1" id="Layer_1" xmlns="http://www.w3.org/2000/svg" xmlns:xlink="http://www.w3.org/1999/xlink" x="0px" y="0px"
	 viewBox="0 0 157 86" style="enable-background:new 0 0 157 86;" xml:space="preserve">
<style type="text/css">
	.st0{fill:#FFFFFF;}
	.st1{fill:#FFFFFF;stroke:#FFFFFF;stroke-miterlimit:10;}
</style>
<g>
	<path class="st0" d="M7.9,57.8h4.9l5.9,10.6l5.8-10.6h4.9l1.1,22.7h-5.1l-0.6-14.8l-4.7,8.8h-2.7l-5-8.7l-0.6,14.7H6.9L7.9,57.8z"
		/>
	<path class="st0" d="M37.1,72.5c0-1.2,0.2-2.3,0.6-3.3c0.4-1,1-1.9,1.8-2.7c0.7-0.8,1.6-1.4,2.7-1.8c1.1-0.4,2.2-0.7,3.5-0.7
		c1.3,0,2.4,0.2,3.5,0.7c1,0.4,1.9,1,2.7,1.8c0.7,0.8,1.3,1.7,1.8,2.7c0.4,1,0.6,2.1,0.6,3.3c0,1.2-0.2,2.3-0.6,3.3
		c-0.4,1-1,1.9-1.8,2.7c-0.7,0.8-1.6,1.4-2.7,1.8c-1,0.5-2.2,0.7-3.5,0.7c-1.3,0-2.4-0.2-3.5-0.7c-1.1-0.5-2-1.1-2.7-1.8
		c-0.7-0.8-1.3-1.7-1.8-2.7C37.3,74.8,37.1,73.7,37.1,72.5z M45.7,76.8c0.6,0,1.2-0.1,1.6-0.4s0.9-0.6,1.2-1
		c0.3-0.4,0.6-0.9,0.7-1.4c0.2-0.5,0.2-1,0.2-1.6c0-0.5-0.1-1.1-0.2-1.6c-0.2-0.5-0.4-1-0.7-1.4c-0.3-0.4-0.7-0.7-1.2-1
		s-1-0.4-1.6-0.4c-0.6,0-1.2,0.1-1.6,0.4c-0.5,0.2-0.9,0.6-1.2,1c-0.3,0.4-0.6,0.9-0.7,1.4c-0.2,0.5-0.3,1-0.3,1.6
		c0,0.5,0.1,1.1,0.3,1.6s0.4,1,0.7,1.4c0.3,0.4,0.7,0.7,1.2,1C44.5,76.7,45.1,76.8,45.7,76.8z"/>
	<path class="st0" d="M60.2,72.5c0-1.2,0.2-2.3,0.6-3.3c0.4-1,1-1.9,1.8-2.7c0.7-0.8,1.6-1.4,2.7-1.8c1.1-0.4,2.2-0.7,3.5-0.7
		s2.4,0.2,3.5,0.7c1,0.4,1.9,1,2.7,1.8s1.3,1.7,1.8,2.7c0.4,1,0.6,2.1,0.6,3.3c0,1.2-0.2,2.3-0.6,3.3c-0.4,1-1,1.9-1.8,2.7
		c-0.7,0.8-1.6,1.4-2.7,1.8c-1,0.5-2.2,0.7-3.5,0.7s-2.4-0.2-3.5-0.7c-1.1-0.5-2-1.1-2.7-1.8c-0.7-0.8-1.3-1.7-1.8-2.7
		C60.4,74.8,60.2,73.7,60.2,72.5z M68.7,76.8c0.6,0,1.2-0.1,1.6-0.4s0.9-0.6,1.2-1c0.3-0.4,0.6-0.9,0.7-1.4c0.2-0.5,0.2-1,0.2-1.6
		c0-0.5-0.1-1.1-0.2-1.6c-0.2-0.5-0.4-1-0.7-1.4c-0.3-0.4-0.7-0.7-1.2-1s-1-0.4-1.6-0.4c-0.6,0-1.2,0.1-1.6,0.4
		c-0.5,0.2-0.9,0.6-1.2,1c-0.3,0.4-0.6,0.9-0.7,1.4c-0.2,0.5-0.3,1-0.3,1.6c0,0.5,0.1,1.1,0.3,1.6c0.2,0.5,0.4,1,0.7,1.4
		c0.3,0.4,0.7,0.7,1.2,1C67.6,76.7,68.1,76.8,68.7,76.8z"/>
	<path class="st0" d="M84,64.6h4.7l0.1,1.7c0.5-0.6,1.2-1.1,2.1-1.5c0.9-0.4,1.7-0.6,2.7-0.6c1.8,0,3.3,0.5,4.4,1.6
		c1.1,1.1,1.6,2.7,1.6,4.8v9.9h-4.9v-9.2c0-0.9-0.2-1.6-0.7-2.1c-0.4-0.5-1.1-0.8-1.9-0.8c-0.5,0-1,0.1-1.4,0.3s-0.7,0.4-1,0.8
		s-0.5,0.7-0.6,1.1c-0.1,0.4-0.2,0.9-0.2,1.3v8.6H84V64.6z"/>
	<path class="st0" d="M127.7,76.3c-0.5,0.7-1.1,1.3-1.7,1.9c-0.7,0.6-1.4,1.1-2.3,1.5c-0.8,0.4-1.7,0.8-2.7,1c-1,0.2-2,0.4-3,0.4
		c-1.7,0-3.3-0.3-4.7-0.9c-1.4-0.6-2.7-1.4-3.7-2.5c-1-1.1-1.8-2.3-2.4-3.7c-0.6-1.4-0.8-3-0.8-4.7c0-1.7,0.3-3.2,0.8-4.7
		c0.6-1.5,1.4-2.7,2.4-3.8c1-1.1,2.3-1.9,3.7-2.5c1.4-0.6,3-0.9,4.8-0.9c2.1,0,3.9,0.4,5.5,1.2c1.6,0.8,2.9,1.9,3.9,3.3l-3.5,3.4
		c-0.7-1-1.5-1.7-2.4-2.3c-0.9-0.6-2-0.9-3.3-0.9c-1,0-1.9,0.2-2.8,0.6c-0.8,0.4-1.5,0.9-2.1,1.5c-0.6,0.7-1,1.4-1.3,2.3
		c-0.3,0.9-0.5,1.8-0.5,2.8c0,1,0.2,1.9,0.5,2.8c0.3,0.9,0.7,1.6,1.3,2.2c0.6,0.6,1.2,1.1,2,1.5c0.8,0.4,1.7,0.5,2.7,0.5
		c0.8,0,1.5-0.1,2.1-0.3c0.6-0.2,1.1-0.4,1.6-0.7c0.5-0.3,0.9-0.6,1.2-1s0.7-0.8,1.1-1.1L127.7,76.3z"/>
	<path class="st0" d="M133.1,72.5c0-1.2,0.2-2.3,0.6-3.3c0.4-1,1-1.9,1.8-2.7c0.7-0.8,1.6-1.4,2.7-1.8c1.1-0.4,2.2-0.7,3.5-0.7
		s2.4,0.2,3.5,0.7c1,0.4,1.9,1,2.7,1.8c0.7,0.8,1.3,1.7,1.8,2.7c0.4,1,0.6,2.1,0.6,3.3c0,1.2-0.2,2.3-0.6,3.3c-0.4,1-1,1.9-1.8,2.7
		c-0.7,0.8-1.6,1.4-2.7,1.8c-1,0.5-2.2,0.7-3.5,0.7s-2.4-0.2-3.5-0.7c-1.1-0.5-2-1.1-2.7-1.8c-0.7-0.8-1.3-1.7-1.8-2.7
		C133.3,74.8,133.1,73.7,133.1,72.5z M141.6,76.8c0.6,0,1.2-0.1,1.6-0.4c0.5-0.2,0.9-0.6,1.2-1c0.3-0.4,0.6-0.9,0.7-1.4
		c0.2-0.5,0.2-1,0.2-1.6c0-0.5-0.1-1.1-0.2-1.6c-0.2-0.5-0.4-1-0.7-1.4c-0.3-0.4-0.7-0.7-1.2-1c-0.5-0.2-1-0.4-1.6-0.4
		c-0.6,0-1.2,0.1-1.6,0.4c-0.5,0.2-0.9,0.6-1.2,1c-0.3,0.4-0.6,0.9-0.7,1.4c-0.2,0.5-0.3,1-0.3,1.6c0,0.5,0.1,1.1,0.3,1.6
		c0.2,0.5,0.4,1,0.7,1.4c0.3,0.4,0.7,0.7,1.2,1C140.5,76.7,141,76.8,141.6,76.8z"/>
</g>
<g>
	<path class="st0" d="M92,17.9c-0.2-0.3-0.5-0.4-0.9-0.4c-0.4,0-0.7,0.1-0.9,0.4c-0.3,0.3-0.4,0.9-0.4,1.6c0,0.8,0.1,1.3,0.4,1.6
		c0.2,0.3,0.6,0.5,1,0.5c0.4,0,0.7-0.1,0.9-0.4c0.3-0.3,0.4-0.9,0.4-1.6C92.4,18.8,92.2,18.3,92,17.9z M91.5,20.6
		c0,0.2-0.1,0.3-0.2,0.3C91.2,21,91.2,21,91.1,21c-0.1,0-0.2,0-0.2-0.1c-0.1-0.1-0.1-0.2-0.2-0.4c0-0.2-0.1-0.5-0.1-1
		c0-0.5,0-0.8,0.1-1c0-0.2,0.1-0.3,0.2-0.3c0.1-0.1,0.2-0.1,0.3-0.1c0.1,0,0.2,0,0.2,0.1c0.1,0.1,0.1,0.2,0.2,0.4
		c0,0.2,0.1,0.5,0.1,1C91.6,20,91.5,20.4,91.5,20.6z"/>
	<path class="st1" d="M78.5,5.9c12.7,0,23.1,10.3,23.1,23.1S91.2,52.1,78.5,52.1c-12.7,0-23.1-10.3-23.1-23.1S65.8,5.9,78.5,5.9
		 M78.5,4c-13.8,0-25,11.2-25,25c0,13.8,11.2,25,25,25s25-11.2,25-25C103.5,15.2,92.3,4,78.5,4L78.5,4z"/>
	<path class="st0" d="M86.8,18.5c0.2-0.1,0.4-0.2,0.7-0.4c0.2-0.2,0.4-0.4,0.5-0.6h0.6v4.1h-0.8v-2.9c-0.3,0.3-0.6,0.5-1,0.6V18.5z"
		/>
	<path class="st0" d="M72,35.6c-4.9-0.7-8.8-4.8-9.2-9.8c-0.4-4.9,2.4-8.9,5.8-10.6c-1.8,4.6-1.2,8.9,2.4,12.5
		c3.6,3.5,7.9,3.9,12.5,2C81.4,33.6,77,36.4,72,35.6z"/>
	<path class="st0" d="M88.1,42.8c-2.8,2.1-6.2,2.6-8.6,2.6c-1.4,0-2.4-0.2-2.5-0.2l0.2-1.4c0,0,1.5,0.2,3.5,0.1
		c1.1-0.1,3.8-0.4,6.4-2.2c3.4-2.3,4.6-5.8,4.9-7C91.8,38.2,90.5,40.9,88.1,42.8z"/>
	<path class="st0" d="M85.7,17.9c-0.2-0.3-0.5-0.4-0.9-0.4c-0.4,0-0.7,0.1-0.9,0.4c-0.3,0.3-0.4,0.9-0.4,1.6c0,0.8,0.1,1.3,0.4,1.6
		c0.2,0.3,0.6,0.5,1,0.5c0.4,0,0.7-0.1,0.9-0.4c0.3-0.3,0.4-0.9,0.4-1.6C86.1,18.8,86,18.3,85.7,17.9z M85.2,20.6
		c0,0.2-0.1,0.3-0.2,0.3C85,21,84.9,21,84.8,21c-0.1,0-0.2,0-0.2-0.1c-0.1-0.1-0.1-0.2-0.2-0.4c0-0.2-0.1-0.5-0.1-1
		c0-0.5,0-0.8,0.1-1c0-0.2,0.1-0.3,0.2-0.3c0.1-0.1,0.2-0.1,0.3-0.1c0.1,0,0.2,0,0.2,0.1c0.1,0.1,0.1,0.2,0.2,0.4
		c0,0.2,0.1,0.5,0.1,1C85.3,20,85.3,20.4,85.2,20.6z"/>
</g>
</svg>
