<?xml version="1.0" encoding="utf-8"?>
<!-- Generator: Adobe Illustrator 21.0.0, SVG Export Plug-In . SVG Version: 6.00 Build 0)  -->
<svg version="1.1" id="Layer_1" xmlns="http://www.w3.org/2000/svg" xmlns:xlink="http://www.w3.org/1999/xlink" x="0px" y="0px"
	 viewBox="0 0 39 40" style="enable-background:new 0 0 39 40;" xml:space="preserve">
<style type="text/css">
	.st0{fill:#FFFFFF;}
</style>
<path class="st0" d="M37.4,16.4c-0.2,0.3-0.4,0.6-0.7,0.8c-2.7,2.3-5.5,4.7-8.3,7c-0.2,0.2-0.3,0.4-0.2,0.7
	c0.9,3.6,1.8,7.2,2.7,10.7c0.2,0.9-0.3,1.6-1.1,1.5c-0.2,0-0.4-0.1-0.6-0.2C26.2,35,23,33,19.9,31c-0.3-0.2-0.5-0.2-0.8,0
	c-3.1,2-6.2,3.9-9.3,5.9c-0.2,0.1-0.4,0.2-0.6,0.3c-0.8,0.1-1.4-0.5-1.2-1.3c0.6-2.4,1.2-4.8,1.8-7.3c0.3-1.3,0.6-2.5,1-3.8
	c0.1-0.2,0-0.4-0.2-0.5c-2.8-2.4-5.7-4.8-8.5-7.2c-0.5-0.4-0.6-0.8-0.4-1.3c0.2-0.5,0.5-0.7,1.1-0.7c2.5-0.2,5-0.4,7.5-0.5
	c1.2-0.1,2.3-0.2,3.5-0.2c0.3,0,0.4-0.1,0.5-0.4c1.4-3.4,2.8-6.9,4.2-10.3c0.2-0.6,0.5-0.8,1.1-0.8c0.5,0,0.8,0.2,1.1,0.8
	c1.4,3.4,2.8,6.9,4.2,10.3c0.1,0.3,0.2,0.3,0.5,0.4c2.9,0.2,5.8,0.4,8.7,0.6c0.7,0.1,1.5,0.1,2.2,0.1c0.6,0,1,0.2,1.3,0.8
	C37.4,16.1,37.4,16.2,37.4,16.4z"/>
</svg>
